<svg width="72" height="69" viewBox="0 0 72 69" fill="none" xmlns="http://www.w3.org/2000/svg">
<ellipse cx="36" cy="34.5" rx="36" ry="34.5" fill="#263123"/>
<g clip-path="url(#clip0_107_11)">
<path d="M47.4519 30.2727H25.6006V40.225H47.4519V30.2727Z" fill="#263123"/>
<path d="M36.6835 20C27.6719 20 20.3666 26.4917 20.3666 34.5C20.3666 35.4331 20.4658 36.3456 20.6554 37.2296C21.8393 41.756 20.5772 44.882 19.2181 46.7688C19.2181 46.7688 17.914 48.9999 21.6839 48.9999H36.6835C45.6951 48.9999 53.0004 42.5078 53.0004 34.4999C53 26.4917 45.6951 20 36.6835 20ZM29.3019 37.223C27.8473 37.223 26.6682 36.1559 26.6682 34.8396C26.6682 33.5235 27.8474 32.4566 29.3019 32.4566C30.7564 32.4566 31.9356 33.5235 31.9356 34.8396C31.9356 36.1559 30.7566 37.223 29.3019 37.223ZM36.6766 37.223C35.2223 37.223 34.043 36.1559 34.043 34.8396C34.043 33.5235 35.2223 32.4566 36.6766 32.4566C38.1311 32.4566 39.3107 33.5235 39.3107 34.8396C39.3107 36.1559 38.1311 37.223 36.6766 37.223ZM44.2269 37.223C42.7723 37.223 41.593 36.1559 41.593 34.8396C41.593 33.5235 42.7723 32.4566 44.2269 32.4566C45.6814 32.4566 46.8607 33.5235 46.8607 34.8396C46.8607 36.1559 45.6814 37.223 44.2269 37.223Z" fill="#5EBE29"/>
</g>
<defs>
<clipPath id="clip0_107_11">
<rect width="34" height="29" fill="white" transform="translate(19 20)"/>
</clipPath>
</defs>
</svg>
